<svg id="visual" viewBox="0 0 960 300" width="960" height="300" xmlns="http://www.w3.org/2000/svg" xmlns:xlink="http://www.w3.org/1999/xlink" version="1.1"><rect x="0" y="0" width="960" height="300" fill="#fff"></rect><path d="M0 101L22.8 92.5C45.7 84 91.3 67 137 61.8C182.7 56.7 228.3 63.3 274 72.5C319.7 81.7 365.3 93.3 411.2 108.3C457 123.3 503 141.7 548.8 147.5C594.7 153.3 640.3 146.7 686 129C731.7 111.3 777.3 82.7 823 76.8C868.7 71 914.3 88 937.2 96.5L960 105L960 0L937.2 0C914.3 0 868.7 0 823 0C777.3 0 731.7 0 686 0C640.3 0 594.7 0 548.8 0C503 0 457 0 411.2 0C365.3 0 319.7 0 274 0C228.3 0 182.7 0 137 0C91.3 0 45.7 0 22.8 0L0 0Z" fill="#008dfd" stroke-linecap="round" stroke-linejoin="miter"></path></svg>